HIERARCHY
ROOT simHips
{
  OFFSET 94.251 99.7319 87.8199
  CHANNELS 6 Xposition Yposition Zposition Zrotation Xrotation Yrotation
  JOINT simSpine
  {
    OFFSET -0.000355721 21.3001 -0.016921
    CHANNELS 3 Zrotation Xrotation Yrotation
    JOINT simLeftArm
    {
      OFFSET 13.5181 21.3012 0
      CHANNELS 3 Zrotation Xrotation Yrotation
      JOINT simLeftForeArm
      {
        OFFSET 24.5783 0 0
        CHANNELS 3 Zrotation Xrotation Yrotation
        JOINT simLeftHand
        {
          OFFSET 24.5783 0 0
          CHANNELS 3 Zrotation Xrotation Yrotation
          End Site
          {
            OFFSET 7.32568 1.52588e-05 0.0169305
          }
        }
      }
    }
    JOINT simHead
    {
      OFFSET 0 27.4458 -0.00489235
      CHANNELS 3 Zrotation Xrotation Yrotation
      End Site
      {
        OFFSET 0 0 0
      }
    }
    JOINT simRightArm
    {
      OFFSET -13.5174 21.3012 0
      CHANNELS 3 Zrotation Xrotation Yrotation
      JOINT simRightForeArm
      {
        OFFSET -24.5783 0 0
        CHANNELS 3 Zrotation Xrotation Yrotation
        JOINT simRightHand
        {
          OFFSET -24.5783 0 0
          CHANNELS 3 Zrotation Xrotation Yrotation
          End Site
          {
            OFFSET -7.32568 1.52588e-05 0.0169305
          }
        }
      }
    }
  }
  JOINT simRightUpLeg
  {
    OFFSET -8.44614 -9.41038 0.835684
    CHANNELS 3 Zrotation Xrotation Yrotation
    JOINT simRightLeg
    {
      OFFSET 0 -40.9639 0
      CHANNELS 3 Zrotation Xrotation Yrotation
      JOINT simRightFoot
      {
        OFFSET 0 -40.9639 0
        CHANNELS 3 Zrotation Xrotation Yrotation
        End Site
        {
          OFFSET 0.50614 -9.67405 14.6709
        }
      }
    }
  }
  JOINT simLeftUpLeg
  {
    OFFSET 8.44614 -9.41038 0.835684
    CHANNELS 3 Zrotation Xrotation Yrotation
    JOINT simLeftLeg
    {
      OFFSET 0 -40.9639 0
      CHANNELS 3 Zrotation Xrotation Yrotation
      JOINT simLeftFoot
      {
        OFFSET 0 -40.9639 0
        CHANNELS 3 Zrotation Xrotation Yrotation
        End Site
        {
          OFFSET -0.50614 -9.67405 14.6709
        }
      }
    }
  }
}
MOTION
Frames:	19
Frame Time:	0.0333333
94.4977 99.7116 88.1067 0.132431 0.34378 -0.941531 0.281205 0.0432053 -0.253289 2.06867 -0.726459 -0.0177398 -0.0892816 -0.0268496 9.96005e-05 -0.886739 -0.380052 -0.629499 -1.39843 -1.74358 -6.93769 -0.616068 0.564713 -0.419034 0.0110813 -5.97642e-06 -6.99696e-05 1.0114 0.363967 0.0203498 -0.00033388 0.334542 0.988198 -0.0496057 0.111897 -0.00606228 -0.0414654 -0.994895 0.0482655 -0.77148 -0.319443 0.0742048 0.024717 2.7942 0.00445871 0.687632 -2.75217 0.875916 
94.4921 99.7118 88.0621 0.115541 0.380106 -1.0473 0.205361 0.0152721 -0.170222 1.89929 -0.609023 0.0113872 -0.0709837 -0.0268496 9.96005e-05 -0.907061 -0.401766 -0.583913 -1.10443 -1.79059 -6.88051 -0.781753 0.563511 -0.252104 0.0110813 -5.97642e-06 -6.99696e-05 0.980684 0.468684 0.0503945 0.0211398 0.305364 1.07421 -0.0496175 -1.69714e-05 -0.00606227 0.00293471 -0.882715 0.0641754 -0.745444 -0.369647 0.117026 0.026706 2.76861 0.00445862 0.639643 -2.74225 0.93204 
94.4717 99.7148 88.0334 0.0892037 0.381994 -1.07533 0.13619 0.018806 -0.140124 1.76361 -0.496861 -0.0259373 -0.0881789 -0.0268496 9.96005e-05 -0.905457 -0.33141 -0.672279 -0.8173 -1.80082 -6.51538 -0.882043 0.454319 -0.125831 0.0150894 -5.97642e-06 -6.99696e-05 0.986631 0.61378 0.0714838 0.0586795 0.280155 1.02439 -0.0540043 -1.69596e-05 -0.00606227 0.0665549 -0.858714 0.137286 -0.691164 -0.377951 0.162992 -0.0102941 2.77479 0.00445864 0.691906 -2.73677 0.927761 
94.4567 99.7218 88.0211 0.0572449 0.356985 -1.08254 0.0987049 0.0304476 -0.115093 1.63713 -0.52511 -0.085856 -0.108026 -0.0268496 9.96005e-05 -0.893177 -0.00341048 -0.629673 -0.55291 -1.77198 -5.90188 -0.945062 0.366242 -0.0231418 0.0234355 -5.97642e-06 -6.99696e-05 0.968289 0.688594 0.102918 0.114009 0.252364 0.985296 -0.0616476 0.0969257 -0.00606228 0.0558825 -0.875051 0.186449 -0.663527 -0.385026 0.187915 0.0265209 2.79274 0.00445871 0.633459 -2.72509 0.923379 
94.4516 99.7262 88.0137 0.0389031 0.337141 -1.09514 0.0644037 0.0253341 -0.0578739 1.60693 -0.46248 -0.126796 -0.117615 -0.0272307 9.96005e-05 -1.00039 0.149278 -0.671726 -0.305863 -1.76549 -5.17715 -1.00328 0.347157 0.044113 -0.000229374 -5.97642e-06 -6.99696e-05 0.933369 0.581512 -0.153498 0.137582 0.335164 0.938834 -0.0667071 -0.0395511 -0.00606227 0.0854909 -0.794395 0.23806 -0.623465 -0.391471 0.261663 0.00190763 2.82628 0.00445883 0.621605 -2.73425 0.862648 
94.4453 99.7295 88.02 0.0360307 0.326226 -1.0466 0.0368427 -0.0131618 -0.0762405 1.63683 -0.414973 -0.105879 -0.112739 -0.0277143 9.96005e-05 -1.03976 0.204373 -0.621125 -0.100035 -1.73206 -4.39386 -1.08501 0.371497 0.0776152 0.0102073 -5.97642e-06 -6.99696e-05 0.918791 0.687457 -0.0147451 0.150274 0.333322 0.88129 -0.0759325 3.19431e-05 -0.00606227 0.0593133 -0.797514 0.221918 -0.615966 -0.397006 0.178852 -0.00166126 2.861 0.00445897 0.664232 -2.7214 0.895611 
94.4663 99.7293 88.0226 0.0311405 0.267931 -1.00799 0.0608782 0.000650081 -0.0260444 1.64926 -0.319768 -0.140925 -0.114057 -0.0282748 9.96005e-05 -0.935374 0.0397 -0.587406 0.00412491 -1.73336 -3.63847 -1.20257 0.372996 0.0700535 0.0520749 -5.97642e-06 -6.99696e-05 0.860159 0.655463 0.0104818 0.134507 0.347998 0.84354 -0.0734072 0.110154 -0.00606228 0.146392 -0.851769 0.237715 -0.63571 -0.248761 0.0680437 0.0264283 2.76518 0.0044586 0.62075 -2.72724 0.963646 
94.4695 99.7294 88.0361 0.0349478 0.248447 -0.884468 0.0549439 -0.0348549 -0.0417721 1.69916 -0.280948 -0.187647 -0.117213 -0.0288866 9.96005e-05 -0.966615 0.119644 -0.494675 0.127478 -1.66885 -2.96902 -1.26688 0.443684 0.0120383 0.0343263 -5.97642e-06 -6.99696e-05 0.895762 0.712535 -0.0292824 0.136395 0.415227 0.707149 -0.0725497 0.0559574 -0.00606227 0.00826006 -0.82089 0.23167 -0.634132 -0.211672 0.032009 -0.0027909 2.71883 0.00445843 0.629622 -2.70095 0.881531 
94.4913 99.7294 88.053 0.0198122 0.218397 -0.768248 0.103935 -0.0441761 -0.0286001 1.71521 -0.301916 -0.255776 -0.119695 -0.029524 9.96005e-05 -1.04689 0.168164 -0.49141 0.137109 -1.65911 -2.49567 -1.31462 0.379102 -0.0841216 0.0428561 -5.97642e-06 -6.99696e-05 0.798747 0.696469 0.019613 0.13871 0.467706 0.627778 -0.0625658 0.0484687 -0.00606227 0.00846863 -0.800733 0.179581 -0.64158 -0.227497 0.0418861 0.0266237 2.78425 0.00445867 0.672154 -2.68043 0.761524 
94.5024 99.7294 88.062 0.0123001 0.192025 -0.606552 0.13458 -0.0595983 -0.0733266 1.73575 0.0107008 -0.205173 -0.10077 -0.0301614 9.96005e-05 -0.947302 0.034284 -0.5091 0.107752 -1.58675 -2.13428 -1.32893 0.160537 -0.143556 0.069578 -5.97642e-06 -6.99696e-05 0.800721 0.668374 0.0211981 0.137109 0.54193 0.527741 -0.0594951 2.12154e-05 -0.00606227 -0.00280089 -0.778541 0.114851 -0.645731 -0.17345 0.0649539 0.030094 2.7581 0.00445858 0.629718 -2.71371 0.582588 
94.522 99.7296 88.0685 0.0218551 0.178887 -0.506415 0.155535 -0.0634216 -0.0462758 1.6932 -0.192183 -0.280166 -0.111123 -0.0307731 9.96005e-05 -0.945938 0.144189 -0.414829 0.129811 -1.58194 -1.793 -1.33059 0.105255 -0.200041 0.0851421 -5.97642e-06 -6.99696e-05 0.71188 0.652475 0.0610635 0.114772 0.535548 0.440247 -0.0581673 0.0685517 -0.00606227 0.00101103 -0.823393 0.111023 -0.667217 -0.190915 -0.0356581 0.0302392 2.77402 0.00445864 0.642288 -2.67752 0.587722 
94.5487 99.7297 88.0722 0.0392331 0.168705 -0.448948 0.181341 -0.0819486 0.00434041 1.62558 -0.285178 -0.309794 -0.136661 -0.0313337 9.96005e-05 -0.970101 0.258546 -0.579047 0.118559 -1.47248 -1.37506 -1.30008 0.0240113 -0.206376 0.0792342 -5.97642e-06 -6.99696e-05 0.780257 0.515046 -0.15354 0.0744861 0.59183 0.416306 -0.0573721 1.35767e-05 -0.00606227 0.0518792 -0.801956 0.0684346 -0.698617 -0.219624 -0.0727906 0.028948 2.82266 0.00445882 0.659834 -2.67394 0.552694 
94.5602 99.7298 88.0845 0.0203959 0.144823 -0.391139 0.225461 -0.0797192 0.0157179 1.49928 -0.288535 -0.299681 -0.134722 -0.0318173 9.96005e-05 -0.951193 0.151445 -0.484917 0.15496 -1.33393 -0.922396 -1.21844 -0.101403 -0.168911 0.0652513 -5.97642e-06 -6.99696e-05 0.786122 0.411049 -0.0311693 0.0911745 0.60792 0.367587 -0.0569916 0.0442515 -0.00606227 0.0178337 -0.819295 0.0643562 -0.698124 -0.150803 -0.110613 0.0270188 2.78048 0.00445866 0.679306 -2.69437 0.554744 
94.5891 99.7301 88.0782 0.0218825 0.157341 -0.396809 0.262908 -0.100511 0.0486789 1.33806 -0.369789 -0.257377 -0.142809 -0.0321984 9.96005e-05 -0.911745 0.330219 -0.479893 0.160416 -1.22019 -0.480442 -1.10608 -0.272962 -0.0864556 0.0636785 -5.97642e-06 -6.99696e-05 0.757134 0.281581 0.0153914 0.0728765 0.577815 0.373759 -0.0569489 0.0685587 -0.00606227 0.00181457 -0.827599 0.0550106 -0.71521 -0.193246 -0.160768 0.0252284 2.80319 0.00445875 0.6639 -2.6911 0.600443 
94.6085 99.7304 88.0723 0.0205964 0.16688 -0.410791 0.289967 -0.109668 0.126133 1.18454 -0.375543 -0.216714 -0.136005 -0.0324513 9.96005e-05 -0.916579 0.3771 -0.459919 0.116525 -1.16144 -0.157739 -1.01868 -0.242194 -0.0409894 0.05928 -5.97642e-06 -6.99696e-05 0.688068 0.367554 -0.0592625 0.0566011 0.564138 0.391599 -0.0571536 0.0625438 -0.00606227 0.0391328 -0.81628 0.0523784 -0.729793 -0.193949 -0.0939955 0.0235401 2.75672 0.00445857 0.699703 -2.64815 0.545825 
94.6246 99.7306 88.0629 0.0189126 0.163654 -0.448128 0.313735 -0.103089 0.220733 1.05431 -0.372542 -0.165295 -0.12373 -0.0325505 9.96005e-05 -0.919765 0.299309 -0.417932 0.0700598 -1.17161 0.121071 -0.949503 -0.158408 -0.0513728 0.0558833 -5.97642e-06 -6.99696e-05 0.690031 0.439566 -0.0500504 0.0523161 0.563852 0.412406 -0.0575123 0.0484636 -0.00606227 0.025359 -0.800383 0.0693885 -0.716135 -0.17794 -0.0907324 -0.0121321 2.78378 0.00445867 0.745996 -2.66427 0.58865 
94.6212 99.7307 88.0494 0.0186423 0.155208 -0.414132 0.301189 -0.0699209 0.263094 0.989038 -0.343546 -0.138189 -0.13958 -0.0324703 9.96005e-05 -0.914715 0.228261 -0.510532 0.0889632 -1.2346 0.299333 -0.866909 -0.0235365 -0.0817312 0.0583181 -5.97642e-06 -6.99696e-05 0.66786 0.258841 -0.0336996 0.0571871 0.588198 0.388496 -0.0579365 -1.80975e-05 -0.00606227 0.00564634 -0.764864 0.0459737 -0.718321 -0.243676 -0.0454196 -0.00370995 2.86814 0.004459 0.707999 -2.7035 0.500078 
94.6123 99.7309 88.0313 -0.00260713 0.149336 -0.367112 0.307439 -0.0493747 0.253836 0.916903 -0.32109 -0.0909599 -0.123651 -0.032185 9.96005e-05 -0.959601 0.328661 -0.342614 0.0469999 -1.27263 0.391925 -0.793402 -0.0912208 -0.0698948 0.0701124 -5.97642e-06 -6.99696e-05 0.755349 0.206776 -0.0463656 0.0875792 0.585573 0.321938 -0.0583262 -5.54826e-06 -0.00606227 -0.0204548 -0.734032 0.0560719 -0.689723 -0.210517 -0.145502 -0.0157876 2.82873 0.00445884 0.752336 -2.67191 0.564035 
94.6032 99.7311 88.0182 0.00339287 0.157285 -0.31471 0.285221 -0.0543847 0.29128 0.874904 -0.282533 -0.108263 -0.134729 -0.0316691 9.96005e-05 -0.934127 0.281363 -0.519669 -0.0182771 -1.28877 0.390501 -0.79106 0.0729698 -0.154388 0.0842726 -5.97642e-06 -6.99696e-05 0.701966 0.344552 0.000884575 0.0865458 0.572522 0.279746 -0.0585953 8.10582e-06 -0.00606227 -0.0103188 -0.732979 0.047343 -0.698843 -0.2221 -0.124707 0.0213388 2.76207 0.00445859 0.675403 -2.6336 0.478368 
